<?xml version="1.0" encoding="UTF-8" standalone="no"?>
<!DOCTYPE svg PUBLIC "-//W3C//DTD SVG 1.1//EN"
 "http://www.w3.org/Graphics/SVG/1.1/DTD/svg11.dtd">
<!-- Generated by graphviz version 2.40.1 (20161225.0304)
 -->
<!-- Title: snakemake_dag Pages: 1 -->
<svg width="979pt" height="548pt"
 viewBox="0.00 0.00 979.00 548.00" xmlns="http://www.w3.org/2000/svg" xmlns:xlink="http://www.w3.org/1999/xlink">
<g id="graph0" class="graph" transform="scale(1 1) rotate(0) translate(4 544)">
<title>snakemake_dag</title>
<polygon fill="#ffffff" stroke="transparent" points="-4,4 -4,-544 975,-544 975,4 -4,4"/>
<!-- 0 -->
<g id="node1" class="node">
<title>0</title>
<path fill="none" stroke="#80d856" stroke-width="2" d="M415,-36C415,-36 385,-36 385,-36 379,-36 373,-30 373,-24 373,-24 373,-12 373,-12 373,-6 379,0 385,0 385,0 415,0 415,0 421,0 427,-6 427,-12 427,-12 427,-24 427,-24 427,-30 421,-36 415,-36"/>
<text text-anchor="middle" x="400" y="-15.5" font-family="sans" font-size="10.00" fill="#000000">all</text>
</g>
<!-- 1 -->
<g id="node2" class="node">
<title>1</title>
<path fill="none" stroke="#97d856" stroke-width="2" d="M79,-396C79,-396 49,-396 49,-396 43,-396 37,-390 37,-384 37,-384 37,-372 37,-372 37,-366 43,-360 49,-360 49,-360 79,-360 79,-360 85,-360 91,-366 91,-372 91,-372 91,-384 91,-384 91,-390 85,-396 79,-396"/>
<text text-anchor="middle" x="64" y="-375.5" font-family="sans" font-size="10.00" fill="#000000">multiqc</text>
</g>
<!-- 1&#45;&gt;0 -->
<g id="edge3" class="edge">
<title>1&#45;&gt;0</title>
<path fill="none" stroke="#c0c0c0" stroke-width="2" d="M64,-359.8146C64,-332.4983 64,-279.25 64,-234 64,-234 64,-234 64,-162 64,-118.9187 66.615,-99.2294 100,-72 139.6898,-39.6283 290.8696,-25.3379 362.252,-20.2928"/>
<polygon fill="#c0c0c0" stroke="#c0c0c0" stroke-width="2" points="362.8498,-23.7602 372.5884,-19.5877 362.3734,-16.7764 362.8498,-23.7602"/>
</g>
<!-- 2 -->
<g id="node3" class="node">
<title>2</title>
<path fill="none" stroke="#567bd8" stroke-width="2" d="M208,-324C208,-324 130,-324 130,-324 124,-324 118,-318 118,-312 118,-312 118,-300 118,-300 118,-294 124,-288 130,-288 130,-288 208,-288 208,-288 214,-288 220,-294 220,-300 220,-300 220,-312 220,-312 220,-318 214,-324 208,-324"/>
<text text-anchor="middle" x="169" y="-303.5" font-family="sans" font-size="10.00" fill="#000000">demux_summary</text>
</g>
<!-- 2&#45;&gt;0 -->
<g id="edge10" class="edge">
<title>2&#45;&gt;0</title>
<path fill="none" stroke="#c0c0c0" stroke-width="2" d="M156.3776,-287.7828C128.3952,-244.9539 67.6891,-136.6186 121,-72 151.1752,-35.4244 293.3286,-23.3305 362.2913,-19.5746"/>
<polygon fill="#c0c0c0" stroke="#c0c0c0" stroke-width="2" points="362.895,-23.0483 372.7027,-19.0409 362.5366,-16.0575 362.895,-23.0483"/>
</g>
<!-- 3 -->
<g id="node4" class="node">
<title>3</title>
<path fill="none" stroke="#a7d856" stroke-width="2" d="M236,-108C236,-108 142,-108 142,-108 136,-108 130,-102 130,-96 130,-96 130,-84 130,-84 130,-78 136,-72 142,-72 142,-72 236,-72 236,-72 242,-72 248,-78 248,-84 248,-84 248,-96 248,-96 248,-102 242,-108 236,-108"/>
<text text-anchor="middle" x="189" y="-87.5" font-family="sans" font-size="10.00" fill="#000000">feat_table_summary</text>
</g>
<!-- 3&#45;&gt;0 -->
<g id="edge11" class="edge">
<title>3&#45;&gt;0</title>
<path fill="none" stroke="#c0c0c0" stroke-width="2" d="M241.9719,-71.9243C279.6968,-59.0513 329.4523,-42.0731 362.9724,-30.635"/>
<polygon fill="#c0c0c0" stroke="#c0c0c0" stroke-width="2" points="364.4888,-33.8158 372.8226,-27.2738 362.2281,-27.1909 364.4888,-33.8158"/>
</g>
<!-- 4 -->
<g id="node5" class="node">
<title>4</title>
<path fill="none" stroke="#56b1d8" stroke-width="2" d="M288.5,-180C288.5,-180 217.5,-180 217.5,-180 211.5,-180 205.5,-174 205.5,-168 205.5,-168 205.5,-156 205.5,-156 205.5,-150 211.5,-144 217.5,-144 217.5,-144 288.5,-144 288.5,-144 294.5,-144 300.5,-150 300.5,-156 300.5,-156 300.5,-168 300.5,-168 300.5,-174 294.5,-180 288.5,-180"/>
<text text-anchor="middle" x="253" y="-159.5" font-family="sans" font-size="10.00" fill="#000000">denoi_summary</text>
</g>
<!-- 4&#45;&gt;0 -->
<g id="edge6" class="edge">
<title>4&#45;&gt;0</title>
<path fill="none" stroke="#c0c0c0" stroke-width="2" d="M257.6699,-143.7392C263.5272,-123.9619 275.2723,-92.4998 295,-72 313.8201,-52.4433 341.2606,-38.6711 363.3698,-29.9313"/>
<polygon fill="#c0c0c0" stroke="#c0c0c0" stroke-width="2" points="364.6675,-33.1826 372.7896,-26.3795 362.1978,-26.6327 364.6675,-33.1826"/>
</g>
<!-- 5 -->
<g id="node6" class="node">
<title>5</title>
<path fill="none" stroke="#b6d856" stroke-width="2" d="M360,-108C360,-108 316,-108 316,-108 310,-108 304,-102 304,-96 304,-96 304,-84 304,-84 304,-78 310,-72 316,-72 316,-72 360,-72 360,-72 366,-72 372,-78 372,-84 372,-84 372,-96 372,-96 372,-102 366,-108 360,-108"/>
<text text-anchor="middle" x="338" y="-87.5" font-family="sans" font-size="10.00" fill="#000000">alpha_rare</text>
</g>
<!-- 5&#45;&gt;0 -->
<g id="edge2" class="edge">
<title>5&#45;&gt;0</title>
<path fill="none" stroke="#c0c0c0" stroke-width="2" d="M353.6452,-71.8314C360.8591,-63.454 369.557,-53.3531 377.4605,-44.1749"/>
<polygon fill="#c0c0c0" stroke="#c0c0c0" stroke-width="2" points="380.2711,-46.2748 384.1441,-36.4133 374.9667,-41.7071 380.2711,-46.2748"/>
</g>
<!-- 6 -->
<g id="node7" class="node">
<title>6</title>
<path fill="none" stroke="#ced856" stroke-width="2" d="M443,-180C443,-180 369,-180 369,-180 363,-180 357,-174 357,-168 357,-168 357,-156 357,-156 357,-150 363,-144 369,-144 369,-144 443,-144 443,-144 449,-144 455,-150 455,-156 455,-156 455,-168 455,-168 455,-174 449,-180 443,-180"/>
<text text-anchor="middle" x="406" y="-159.5" font-family="sans" font-size="10.00" fill="#000000">mask_alignment</text>
</g>
<!-- 6&#45;&gt;0 -->
<g id="edge9" class="edge">
<title>6&#45;&gt;0</title>
<path fill="none" stroke="#c0c0c0" stroke-width="2" d="M405.2401,-143.7623C404.2167,-119.201 402.3853,-75.2474 401.1814,-46.3541"/>
<polygon fill="#c0c0c0" stroke="#c0c0c0" stroke-width="2" points="404.6671,-45.9352 400.7537,-36.0896 397.6732,-46.2267 404.6671,-45.9352"/>
</g>
<!-- 7 -->
<g id="node8" class="node">
<title>7</title>
<path fill="none" stroke="#d8d356" stroke-width="2" d="M487.5,-108C487.5,-108 440.5,-108 440.5,-108 434.5,-108 428.5,-102 428.5,-96 428.5,-96 428.5,-84 428.5,-84 428.5,-78 434.5,-72 440.5,-72 440.5,-72 487.5,-72 487.5,-72 493.5,-72 499.5,-78 499.5,-84 499.5,-84 499.5,-96 499.5,-96 499.5,-102 493.5,-108 487.5,-108"/>
<text text-anchor="middle" x="464" y="-87.5" font-family="sans" font-size="10.00" fill="#000000">alpha_faith</text>
</g>
<!-- 7&#45;&gt;0 -->
<g id="edge8" class="edge">
<title>7&#45;&gt;0</title>
<path fill="none" stroke="#c0c0c0" stroke-width="2" d="M447.8501,-71.8314C440.3283,-63.3694 431.2435,-53.1489 423.0196,-43.8971"/>
<polygon fill="#c0c0c0" stroke="#c0c0c0" stroke-width="2" points="425.627,-41.5621 416.3673,-36.4133 420.3951,-46.2127 425.627,-41.5621"/>
</g>
<!-- 8 -->
<g id="node9" class="node">
<title>8</title>
<path fill="none" stroke="#d85656" stroke-width="2" d="M596,-108C596,-108 530,-108 530,-108 524,-108 518,-102 518,-96 518,-96 518,-84 518,-84 518,-78 524,-72 530,-72 530,-72 596,-72 596,-72 602,-72 608,-78 608,-84 608,-84 608,-96 608,-96 608,-102 602,-108 596,-108"/>
<text text-anchor="middle" x="563" y="-87.5" font-family="sans" font-size="10.00" fill="#000000">alpha_evennes</text>
</g>
<!-- 8&#45;&gt;0 -->
<g id="edge1" class="edge">
<title>8&#45;&gt;0</title>
<path fill="none" stroke="#c0c0c0" stroke-width="2" d="M521.8682,-71.8314C495.6091,-60.2323 461.8701,-45.3291 436.552,-34.1457"/>
<polygon fill="#c0c0c0" stroke="#c0c0c0" stroke-width="2" points="437.8556,-30.8953 427.294,-30.0563 435.0272,-37.2984 437.8556,-30.8953"/>
</g>
<!-- 9 -->
<g id="node10" class="node">
<title>9</title>
<path fill="none" stroke="#56d8a9" stroke-width="2" d="M682,-108C682,-108 638,-108 638,-108 632,-108 626,-102 626,-96 626,-96 626,-84 626,-84 626,-78 632,-72 638,-72 638,-72 682,-72 682,-72 688,-72 694,-78 694,-84 694,-84 694,-96 694,-96 694,-102 688,-108 682,-108"/>
<text text-anchor="middle" x="660" y="-87.5" font-family="sans" font-size="10.00" fill="#000000">krona_plot</text>
</g>
<!-- 9&#45;&gt;0 -->
<g id="edge7" class="edge">
<title>9&#45;&gt;0</title>
<path fill="none" stroke="#c0c0c0" stroke-width="2" d="M625.9114,-75.1777C622.9189,-74.045 619.919,-72.9679 617,-72 554.9111,-51.4128 480.5502,-34.5332 436.9678,-25.3988"/>
<polygon fill="#c0c0c0" stroke="#c0c0c0" stroke-width="2" points="437.6039,-21.9563 427.1015,-23.3534 436.1828,-28.8106 437.6039,-21.9563"/>
</g>
<!-- 10 -->
<g id="node11" class="node">
<title>10</title>
<path fill="none" stroke="#56d882" stroke-width="2" d="M810,-180C810,-180 728,-180 728,-180 722,-180 716,-174 716,-168 716,-168 716,-156 716,-156 716,-150 722,-144 728,-144 728,-144 810,-144 810,-144 816,-144 822,-150 822,-156 822,-156 822,-168 822,-168 822,-174 816,-180 810,-180"/>
<text text-anchor="middle" x="769" y="-159.5" font-family="sans" font-size="10.00" fill="#000000">barplot_taxonomy</text>
</g>
<!-- 10&#45;&gt;0 -->
<g id="edge4" class="edge">
<title>10&#45;&gt;0</title>
<path fill="none" stroke="#c0c0c0" stroke-width="2" d="M760.9428,-143.8815C750.6534,-122.9924 730.7924,-89.3165 703,-72 659.109,-44.653 508.366,-27.7888 437.4466,-21.1894"/>
<polygon fill="#c0c0c0" stroke="#c0c0c0" stroke-width="2" points="437.4574,-17.676 427.1811,-20.2542 436.8222,-24.6471 437.4574,-17.676"/>
</g>
<!-- 11 -->
<g id="node12" class="node">
<title>11</title>
<path fill="none" stroke="#566bd8" stroke-width="2" d="M857,-108C857,-108 827,-108 827,-108 821,-108 815,-102 815,-96 815,-96 815,-84 815,-84 815,-78 821,-72 827,-72 827,-72 857,-72 857,-72 863,-72 869,-78 869,-84 869,-84 869,-96 869,-96 869,-102 863,-108 857,-108"/>
<text text-anchor="middle" x="842" y="-87.5" font-family="sans" font-size="10.00" fill="#000000">ancom</text>
</g>
<!-- 11&#45;&gt;0 -->
<g id="edge5" class="edge">
<title>11&#45;&gt;0</title>
<path fill="none" stroke="#c0c0c0" stroke-width="2" d="M814.7597,-83.5392C798.8463,-79.8856 778.3463,-75.3856 760,-72 642.844,-50.38 503.0272,-31.3203 437.4458,-22.773"/>
<polygon fill="#c0c0c0" stroke="#c0c0c0" stroke-width="2" points="437.567,-19.2595 427.1999,-21.4446 436.6669,-26.2014 437.567,-19.2595"/>
</g>
<!-- 12 -->
<g id="node13" class="node">
<title>12</title>
<path fill="none" stroke="#56c1d8" stroke-width="2" d="M42,-468C42,-468 12,-468 12,-468 6,-468 0,-462 0,-456 0,-456 0,-444 0,-444 0,-438 6,-432 12,-432 12,-432 42,-432 42,-432 48,-432 54,-438 54,-444 54,-444 54,-456 54,-456 54,-462 48,-468 42,-468"/>
<text text-anchor="middle" x="27" y="-447.5" font-family="sans" font-size="10.00" fill="#000000">fastqc</text>
</g>
<!-- 12&#45;&gt;1 -->
<g id="edge13" class="edge">
<title>12&#45;&gt;1</title>
<path fill="none" stroke="#c0c0c0" stroke-width="2" d="M36.3367,-431.8314C40.4243,-423.8771 45.3104,-414.369 49.8309,-405.5723"/>
<polygon fill="#c0c0c0" stroke="#c0c0c0" stroke-width="2" points="53.0799,-406.9074 54.5376,-396.4133 46.8539,-403.7078 53.0799,-406.9074"/>
</g>
<!-- 13 -->
<g id="node14" class="node">
<title>13</title>
<path fill="none" stroke="#56d85b" stroke-width="2" d="M119.5,-468C119.5,-468 84.5,-468 84.5,-468 78.5,-468 72.5,-462 72.5,-456 72.5,-456 72.5,-444 72.5,-444 72.5,-438 78.5,-432 84.5,-432 84.5,-432 119.5,-432 119.5,-432 125.5,-432 131.5,-438 131.5,-444 131.5,-444 131.5,-456 131.5,-456 131.5,-462 125.5,-468 119.5,-468"/>
<text text-anchor="middle" x="102" y="-447.5" font-family="sans" font-size="10.00" fill="#000000">cutadapt</text>
</g>
<!-- 13&#45;&gt;1 -->
<g id="edge12" class="edge">
<title>13&#45;&gt;1</title>
<path fill="none" stroke="#c0c0c0" stroke-width="2" d="M92.411,-431.8314C88.1683,-423.7925 83.0879,-414.1666 78.404,-405.2918"/>
<polygon fill="#c0c0c0" stroke="#c0c0c0" stroke-width="2" points="81.4811,-403.6235 73.7181,-396.4133 75.2904,-406.8908 81.4811,-403.6235"/>
</g>
<!-- 14 -->
<g id="node15" class="node">
<title>14</title>
<path fill="none" stroke="#56a2d8" stroke-width="2" d="M224,-396C224,-396 166,-396 166,-396 160,-396 154,-390 154,-384 154,-384 154,-372 154,-372 154,-366 160,-360 166,-360 166,-360 224,-360 224,-360 230,-360 236,-366 236,-372 236,-372 236,-384 236,-384 236,-390 230,-396 224,-396"/>
<text text-anchor="middle" x="195" y="-375.5" font-family="sans" font-size="10.00" fill="#000000">qiime_import</text>
</g>
<!-- 14&#45;&gt;2 -->
<g id="edge14" class="edge">
<title>14&#45;&gt;2</title>
<path fill="none" stroke="#c0c0c0" stroke-width="2" d="M188.4391,-359.8314C185.5973,-351.9617 182.2063,-342.5712 179.0581,-333.8533"/>
<polygon fill="#c0c0c0" stroke="#c0c0c0" stroke-width="2" points="182.3377,-332.63 175.6492,-324.4133 175.7538,-335.0076 182.3377,-332.63"/>
</g>
<!-- 15 -->
<g id="node16" class="node">
<title>15</title>
<path fill="none" stroke="#56d0d8" stroke-width="2" d="M466,-324C466,-324 436,-324 436,-324 430,-324 424,-318 424,-312 424,-312 424,-300 424,-300 424,-294 430,-288 436,-288 436,-288 466,-288 466,-288 472,-288 478,-294 478,-300 478,-300 478,-312 478,-312 478,-318 472,-324 466,-324"/>
<text text-anchor="middle" x="451" y="-303.5" font-family="sans" font-size="10.00" fill="#000000">dada2</text>
</g>
<!-- 14&#45;&gt;15 -->
<g id="edge27" class="edge">
<title>14&#45;&gt;15</title>
<path fill="none" stroke="#c0c0c0" stroke-width="2" d="M236.1308,-366.432C285.2462,-352.6183 366.6712,-329.7175 413.9226,-316.428"/>
<polygon fill="#c0c0c0" stroke="#c0c0c0" stroke-width="2" points="415.0668,-319.7421 423.7456,-313.6653 413.1715,-313.0035 415.0668,-319.7421"/>
</g>
<!-- 15&#45;&gt;3 -->
<g id="edge15" class="edge">
<title>15&#45;&gt;3</title>
<path fill="none" stroke="#c0c0c0" stroke-width="2" d="M423.8788,-300.9654C388.975,-293.7155 327.2136,-278.2393 280,-252 237.0206,-228.1139 218.2643,-223.8415 196,-180 186.3901,-161.0767 184.9885,-136.9891 185.8001,-118.4962"/>
<polygon fill="#c0c0c0" stroke="#c0c0c0" stroke-width="2" points="189.3044,-118.5494 186.4884,-108.3357 182.3204,-118.0763 189.3044,-118.5494"/>
</g>
<!-- 15&#45;&gt;4 -->
<g id="edge16" class="edge">
<title>15&#45;&gt;4</title>
<path fill="none" stroke="#c0c0c0" stroke-width="2" d="M423.8237,-300.2162C394.5192,-292.9126 347.6839,-278.0415 315,-252 293.8307,-235.133 277.0019,-209.1167 266.2497,-189.3858"/>
<polygon fill="#c0c0c0" stroke="#c0c0c0" stroke-width="2" points="269.2131,-187.5006 261.4671,-180.2722 263.0148,-190.7534 269.2131,-187.5006"/>
</g>
<!-- 15&#45;&gt;5 -->
<g id="edge17" class="edge">
<title>15&#45;&gt;5</title>
<path fill="none" stroke="#c0c0c0" stroke-width="2" d="M423.9674,-299.8194C399.6256,-292.7052 365.1235,-278.4358 348,-252 321.6913,-211.384 326.1801,-152.3577 331.9857,-117.9"/>
<polygon fill="#c0c0c0" stroke="#c0c0c0" stroke-width="2" points="335.432,-118.5104 333.7971,-108.0425 328.5473,-117.2453 335.432,-118.5104"/>
</g>
<!-- 16 -->
<g id="node17" class="node">
<title>16</title>
<path fill="none" stroke="#d87d56" stroke-width="2" d="M411,-252C411,-252 369,-252 369,-252 363,-252 357,-246 357,-240 357,-240 357,-228 357,-228 357,-222 363,-216 369,-216 369,-216 411,-216 411,-216 417,-216 423,-222 423,-228 423,-228 423,-240 423,-240 423,-246 417,-252 411,-252"/>
<text text-anchor="middle" x="390" y="-231.5" font-family="sans" font-size="10.00" fill="#000000">alignment</text>
</g>
<!-- 15&#45;&gt;16 -->
<g id="edge28" class="edge">
<title>15&#45;&gt;16</title>
<path fill="none" stroke="#c0c0c0" stroke-width="2" d="M435.6071,-287.8314C428.5096,-279.454 419.952,-269.3531 412.176,-260.1749"/>
<polygon fill="#c0c0c0" stroke="#c0c0c0" stroke-width="2" points="414.7348,-257.7807 405.6001,-252.4133 409.3939,-262.3056 414.7348,-257.7807"/>
</g>
<!-- 17 -->
<g id="node18" class="node">
<title>17</title>
<path fill="none" stroke="#56d892" stroke-width="2" d="M552,-180C552,-180 496,-180 496,-180 490,-180 484,-174 484,-168 484,-168 484,-156 484,-156 484,-150 490,-144 496,-144 496,-144 552,-144 552,-144 558,-144 564,-150 564,-156 564,-156 564,-168 564,-168 564,-174 558,-180 552,-180"/>
<text text-anchor="middle" x="524" y="-159.5" font-family="sans" font-size="10.00" fill="#000000">core_metrics</text>
</g>
<!-- 15&#45;&gt;17 -->
<g id="edge30" class="edge">
<title>15&#45;&gt;17</title>
<path fill="none" stroke="#c0c0c0" stroke-width="2" d="M451.8172,-287.7075C453.3376,-268.7432 457.6714,-238.7439 470,-216 475.7664,-205.3621 484.2845,-195.446 492.8594,-187.089"/>
<polygon fill="#c0c0c0" stroke="#c0c0c0" stroke-width="2" points="495.3777,-189.5273 500.3418,-180.1673 490.6243,-184.3887 495.3777,-189.5273"/>
</g>
<!-- 18 -->
<g id="node19" class="node">
<title>18</title>
<path fill="none" stroke="#d86656" stroke-width="2" d="M686,-180C686,-180 610,-180 610,-180 604,-180 598,-174 598,-168 598,-168 598,-156 598,-156 598,-150 604,-144 610,-144 610,-144 686,-144 686,-144 692,-144 698,-150 698,-156 698,-156 698,-168 698,-168 698,-174 692,-180 686,-180"/>
<text text-anchor="middle" x="648" y="-159.5" font-family="sans" font-size="10.00" fill="#000000">artifact_to_krona</text>
</g>
<!-- 15&#45;&gt;18 -->
<g id="edge32" class="edge">
<title>15&#45;&gt;18</title>
<path fill="none" stroke="#c0c0c0" stroke-width="2" d="M478.0153,-301.934C509.8962,-295.9226 562.9877,-281.9647 598,-252 617.4008,-235.3961 630.7196,-209.2954 638.7025,-189.4684"/>
<polygon fill="#c0c0c0" stroke="#c0c0c0" stroke-width="2" points="642.0078,-190.6233 642.2954,-180.0324 635.466,-188.1324 642.0078,-190.6233"/>
</g>
<!-- 19 -->
<g id="node20" class="node">
<title>19</title>
<path fill="none" stroke="#d8ac56" stroke-width="2" d="M725,-252C725,-252 657,-252 657,-252 651,-252 645,-246 645,-240 645,-240 645,-228 645,-228 645,-222 651,-216 657,-216 657,-216 725,-216 725,-216 731,-216 737,-222 737,-228 737,-228 737,-240 737,-240 737,-246 731,-252 725,-252"/>
<text text-anchor="middle" x="691" y="-231.5" font-family="sans" font-size="10.00" fill="#000000">scikit_classifier</text>
</g>
<!-- 15&#45;&gt;19 -->
<g id="edge33" class="edge">
<title>15&#45;&gt;19</title>
<path fill="none" stroke="#c0c0c0" stroke-width="2" d="M478.0645,-297.8806C515.9908,-286.5028 585.8294,-265.5512 635.1669,-250.7499"/>
<polygon fill="#c0c0c0" stroke="#c0c0c0" stroke-width="2" points="636.173,-254.1023 644.7456,-247.8763 634.1616,-247.3975 636.173,-254.1023"/>
</g>
<!-- 20 -->
<g id="node21" class="node">
<title>20</title>
<path fill="none" stroke="#70d856" stroke-width="2" d="M849,-252C849,-252 767,-252 767,-252 761,-252 755,-246 755,-240 755,-240 755,-228 755,-228 755,-222 761,-216 767,-216 767,-216 849,-216 849,-216 855,-216 861,-222 861,-228 861,-228 861,-240 861,-240 861,-246 855,-252 849,-252"/>
<text text-anchor="middle" x="808" y="-231.5" font-family="sans" font-size="10.00" fill="#000000">filter_table_byrare</text>
</g>
<!-- 15&#45;&gt;20 -->
<g id="edge34" class="edge">
<title>15&#45;&gt;20</title>
<path fill="none" stroke="#c0c0c0" stroke-width="2" d="M478.0352,-301.9928C528.5635,-294.3025 640.8886,-276.2599 744.9515,-252.127"/>
<polygon fill="#c0c0c0" stroke="#c0c0c0" stroke-width="2" points="746.0568,-255.4628 754.9939,-249.7726 744.459,-248.6476 746.0568,-255.4628"/>
</g>
<!-- 24 -->
<g id="node25" class="node">
<title>24</title>
<path fill="none" stroke="#56d8c9" stroke-width="2" d="M577,-252C577,-252 491,-252 491,-252 485,-252 479,-246 479,-240 479,-240 479,-228 479,-228 479,-222 485,-216 491,-216 491,-216 577,-216 577,-216 583,-216 589,-222 589,-228 589,-228 589,-240 589,-240 589,-246 583,-252 577,-252"/>
<text text-anchor="middle" x="534" y="-231.5" font-family="sans" font-size="10.00" fill="#000000">fragment_insertion</text>
</g>
<!-- 15&#45;&gt;24 -->
<g id="edge37" class="edge">
<title>15&#45;&gt;24</title>
<path fill="none" stroke="#c0c0c0" stroke-width="2" d="M471.9444,-287.8314C482.0691,-279.0485 494.3777,-268.3712 505.3548,-258.8489"/>
<polygon fill="#c0c0c0" stroke="#c0c0c0" stroke-width="2" points="507.8019,-261.3595 513.0623,-252.1628 503.2149,-256.0718 507.8019,-261.3595"/>
</g>
<!-- 25 -->
<g id="node26" class="node">
<title>25</title>
<path fill="none" stroke="#d8c356" stroke-width="2" d="M959,-252C959,-252 891,-252 891,-252 885,-252 879,-246 879,-240 879,-240 879,-228 879,-228 879,-222 885,-216 891,-216 891,-216 959,-216 959,-216 965,-216 971,-222 971,-228 971,-228 971,-240 971,-240 971,-246 965,-252 959,-252"/>
<text text-anchor="middle" x="925" y="-231.5" font-family="sans" font-size="10.00" fill="#000000">filter_low_ASVs</text>
</g>
<!-- 15&#45;&gt;25 -->
<g id="edge38" class="edge">
<title>15&#45;&gt;25</title>
<path fill="none" stroke="#c0c0c0" stroke-width="2" d="M478.2692,-304.2689C544.0757,-299.7154 716.7787,-285.5246 868.9693,-251.9994"/>
<polygon fill="#c0c0c0" stroke="#c0c0c0" stroke-width="2" points="869.9685,-255.3625 878.9628,-249.7631 868.4398,-248.5314 869.9685,-255.3625"/>
</g>
<!-- 16&#45;&gt;6 -->
<g id="edge18" class="edge">
<title>16&#45;&gt;6</title>
<path fill="none" stroke="#c0c0c0" stroke-width="2" d="M394.0375,-215.8314C395.7487,-208.131 397.7835,-198.9743 399.6852,-190.4166"/>
<polygon fill="#c0c0c0" stroke="#c0c0c0" stroke-width="2" points="403.1554,-190.9344 401.9082,-180.4133 396.3221,-189.4159 403.1554,-190.9344"/>
</g>
<!-- 17&#45;&gt;7 -->
<g id="edge19" class="edge">
<title>17&#45;&gt;7</title>
<path fill="none" stroke="#c0c0c0" stroke-width="2" d="M508.8595,-143.8314C501.8783,-135.454 493.4609,-125.3531 485.8124,-116.1749"/>
<polygon fill="#c0c0c0" stroke="#c0c0c0" stroke-width="2" points="488.4351,-113.8548 479.3444,-108.4133 483.0575,-118.3362 488.4351,-113.8548"/>
</g>
<!-- 17&#45;&gt;8 -->
<g id="edge20" class="edge">
<title>17&#45;&gt;8</title>
<path fill="none" stroke="#c0c0c0" stroke-width="2" d="M533.8413,-143.8314C538.1957,-135.7925 543.4098,-126.1666 548.2169,-117.2918"/>
<polygon fill="#c0c0c0" stroke="#c0c0c0" stroke-width="2" points="551.3408,-118.8732 553.0261,-108.4133 545.1857,-115.5392 551.3408,-118.8732"/>
</g>
<!-- 18&#45;&gt;9 -->
<g id="edge21" class="edge">
<title>18&#45;&gt;9</title>
<path fill="none" stroke="#c0c0c0" stroke-width="2" d="M651.0281,-143.8314C652.3115,-136.131 653.8376,-126.9743 655.2639,-118.4166"/>
<polygon fill="#c0c0c0" stroke="#c0c0c0" stroke-width="2" points="658.7394,-118.8526 656.9311,-108.4133 651.8347,-117.7018 658.7394,-118.8526"/>
</g>
<!-- 19&#45;&gt;10 -->
<g id="edge23" class="edge">
<title>19&#45;&gt;10</title>
<path fill="none" stroke="#c0c0c0" stroke-width="2" d="M710.6827,-215.8314C720.1051,-207.1337 731.5401,-196.5783 741.7796,-187.1265"/>
<polygon fill="#c0c0c0" stroke="#c0c0c0" stroke-width="2" points="744.3495,-189.5175 749.3236,-180.1628 739.6016,-184.3738 744.3495,-189.5175"/>
</g>
<!-- 19&#45;&gt;18 -->
<g id="edge31" class="edge">
<title>19&#45;&gt;18</title>
<path fill="none" stroke="#c0c0c0" stroke-width="2" d="M680.1493,-215.8314C675.2977,-207.7079 669.4783,-197.9637 664.132,-189.0118"/>
<polygon fill="#c0c0c0" stroke="#c0c0c0" stroke-width="2" points="667.1292,-187.2041 658.9968,-180.4133 661.1194,-190.7933 667.1292,-187.2041"/>
</g>
<!-- 20&#45;&gt;10 -->
<g id="edge22" class="edge">
<title>20&#45;&gt;10</title>
<path fill="none" stroke="#c0c0c0" stroke-width="2" d="M798.1587,-215.8314C793.8043,-207.7925 788.5902,-198.1666 783.7831,-189.2918"/>
<polygon fill="#c0c0c0" stroke="#c0c0c0" stroke-width="2" points="786.8143,-187.5392 778.9739,-180.4133 780.6592,-190.8732 786.8143,-187.5392"/>
</g>
<!-- 21 -->
<g id="node22" class="node">
<title>21</title>
<path fill="none" stroke="#d88d56" stroke-width="2" d="M947,-180C947,-180 869,-180 869,-180 863,-180 857,-174 857,-168 857,-168 857,-156 857,-156 857,-150 863,-144 869,-144 869,-144 947,-144 947,-144 953,-144 959,-150 959,-156 959,-156 959,-168 959,-168 959,-174 953,-180 947,-180"/>
<text text-anchor="middle" x="908" y="-159.5" font-family="sans" font-size="10.00" fill="#000000">add_pseudocount</text>
</g>
<!-- 21&#45;&gt;11 -->
<g id="edge24" class="edge">
<title>21&#45;&gt;11</title>
<path fill="none" stroke="#c0c0c0" stroke-width="2" d="M891.3454,-143.8314C883.5886,-135.3694 874.2198,-125.1489 865.739,-115.8971"/>
<polygon fill="#c0c0c0" stroke="#c0c0c0" stroke-width="2" points="868.2162,-113.4198 858.8788,-108.4133 863.0561,-118.1499 868.2162,-113.4198"/>
</g>
<!-- 22 -->
<g id="node23" class="node">
<title>22</title>
<path fill="none" stroke="#56d873" stroke-width="2" d="M137.5,-540C137.5,-540 84.5,-540 84.5,-540 78.5,-540 72.5,-534 72.5,-528 72.5,-528 72.5,-516 72.5,-516 72.5,-510 78.5,-504 84.5,-504 84.5,-504 137.5,-504 137.5,-504 143.5,-504 149.5,-510 149.5,-516 149.5,-516 149.5,-528 149.5,-528 149.5,-534 143.5,-540 137.5,-540"/>
<text text-anchor="middle" x="111" y="-519.5" font-family="sans" font-size="10.00" fill="#000000">cutadapt_pe</text>
</g>
<!-- 22&#45;&gt;12 -->
<g id="edge25" class="edge">
<title>22&#45;&gt;12</title>
<path fill="none" stroke="#c0c0c0" stroke-width="2" d="M89.8033,-503.8314C79.5566,-495.0485 67.0997,-484.3712 55.9903,-474.8489"/>
<polygon fill="#c0c0c0" stroke="#c0c0c0" stroke-width="2" points="58.0603,-472.0134 48.19,-468.1628 53.5048,-477.3282 58.0603,-472.0134"/>
</g>
<!-- 23 -->
<g id="node24" class="node">
<title>23</title>
<path fill="none" stroke="#56d8b9" stroke-width="2" d="M228.5,-468C228.5,-468 161.5,-468 161.5,-468 155.5,-468 149.5,-462 149.5,-456 149.5,-456 149.5,-444 149.5,-444 149.5,-438 155.5,-432 161.5,-432 161.5,-432 228.5,-432 228.5,-432 234.5,-432 240.5,-438 240.5,-444 240.5,-444 240.5,-456 240.5,-456 240.5,-462 234.5,-468 228.5,-468"/>
<text text-anchor="middle" x="195" y="-447.5" font-family="sans" font-size="10.00" fill="#000000">make_samples</text>
</g>
<!-- 22&#45;&gt;23 -->
<g id="edge36" class="edge">
<title>22&#45;&gt;23</title>
<path fill="none" stroke="#c0c0c0" stroke-width="2" d="M132.1967,-503.8314C142.4434,-495.0485 154.9003,-484.3712 166.0097,-474.8489"/>
<polygon fill="#c0c0c0" stroke="#c0c0c0" stroke-width="2" points="168.4952,-477.3282 173.81,-468.1628 163.9397,-472.0134 168.4952,-477.3282"/>
</g>
<!-- 23&#45;&gt;14 -->
<g id="edge26" class="edge">
<title>23&#45;&gt;14</title>
<path fill="none" stroke="#c0c0c0" stroke-width="2" d="M195,-431.8314C195,-424.131 195,-414.9743 195,-406.4166"/>
<polygon fill="#c0c0c0" stroke="#c0c0c0" stroke-width="2" points="198.5001,-406.4132 195,-396.4133 191.5001,-406.4133 198.5001,-406.4132"/>
</g>
<!-- 24&#45;&gt;17 -->
<g id="edge29" class="edge">
<title>24&#45;&gt;17</title>
<path fill="none" stroke="#c0c0c0" stroke-width="2" d="M531.4766,-215.8314C530.4071,-208.131 529.1353,-198.9743 527.9468,-190.4166"/>
<polygon fill="#c0c0c0" stroke="#c0c0c0" stroke-width="2" points="531.3999,-189.8367 526.5574,-180.4133 524.4664,-190.7997 531.3999,-189.8367"/>
</g>
<!-- 25&#45;&gt;21 -->
<g id="edge35" class="edge">
<title>25&#45;&gt;21</title>
<path fill="none" stroke="#c0c0c0" stroke-width="2" d="M920.7102,-215.8314C918.892,-208.131 916.7301,-198.9743 914.7095,-190.4166"/>
<polygon fill="#c0c0c0" stroke="#c0c0c0" stroke-width="2" points="918.0519,-189.3414 912.3476,-180.4133 911.2392,-190.95 918.0519,-189.3414"/>
</g>
</g>
</svg>
